<?xml version="1.0" standalone="no"?>
<!DOCTYPE svg PUBLIC "-//W3C//DTD SVG 20010904//EN"
 "http://www.w3.org/TR/2001/REC-SVG-20010904/DTD/svg10.dtd">
<svg version="1.0" xmlns="http://www.w3.org/2000/svg"
 width="300.000000pt" height="300.000000pt" viewBox="0 0 300.000000 300.000000"
 preserveAspectRatio="xMidYMid meet">
<metadata>
Created by potrace 1.10, written by Peter Selinger 2001-2011
</metadata>
<g transform="translate(0.000000,300.000000) scale(0.100000,-0.100000)"
fill="#000000" stroke="none">
<path d="M1028 2955 c-105 -29 -162 -87 -237 -246 -75 -158 -96 -246 -96 -409
0 -151 19 -255 65 -355 35 -79 67 -115 132 -150 44 -24 68 -30 138 -33 76 -4
94 -1 155 23 141 57 220 116 250 188 24 59 45 172 45 248 0 172 -121 575 -206
687 -15 19 -42 40 -60 48 -41 17 -123 17 -186 -1z"/>
<path d="M1854 2922 c-17 -11 -41 -33 -53 -48 -71 -90 -219 -474 -239 -620
-12 -85 0 -216 25 -288 23 -65 76 -118 178 -175 99 -57 162 -74 245 -67 122
11 205 71 262 191 83 179 105 432 54 630 -31 120 -85 233 -137 290 -79 86
-262 133 -335 87z"/>
<path d="M389 2100 c-89 -47 -188 -212 -215 -360 -33 -172 -4 -323 93 -490 80
-135 145 -180 266 -181 95 -2 135 16 207 90 104 107 139 166 151 247 21 148
-11 251 -115 366 -148 166 -178 205 -203 261 -14 32 -36 65 -47 73 -28 20 -94
17 -137 -6z"/>
<path d="M2521 2039 c-29 -11 -43 -29 -75 -89 -14 -26 -83 -103 -164 -182
-175 -170 -186 -193 -187 -369 l0 -116 39 -59 c123 -186 175 -224 305 -224 97
0 141 20 205 91 55 61 127 180 155 255 44 117 46 298 5 422 -36 108 -117 228
-173 256 -39 20 -83 26 -110 15z"/>
<path d="M1395 1680 c-127 -21 -204 -83 -325 -260 -127 -188 -224 -305 -313
-376 -96 -77 -129 -116 -168 -202 -58 -125 -75 -285 -44 -406 35 -135 141
-282 239 -334 46 -24 62 -27 151 -27 83 0 114 5 185 29 69 23 107 30 205 33
144 6 256 -11 418 -63 145 -47 214 -53 304 -26 82 25 177 84 222 138 115 138
161 386 103 555 -34 97 -51 121 -172 239 -127 124 -203 229 -300 415 -82 158
-145 223 -255 264 -62 23 -179 33 -250 21z"/>
</g>
</svg>
